<?xml version="1.0" standalone="no"?>
<!DOCTYPE svg PUBLIC "-//W3C//DTD SVG 20010904//EN"
 "http://www.w3.org/TR/2001/REC-SVG-20010904/DTD/svg10.dtd">
<svg version="1.0" xmlns="http://www.w3.org/2000/svg"
 width="500.000000pt" height="500.000000pt" viewBox="0 0 500.000000 500.000000"
 preserveAspectRatio="xMidYMid meet">

<g transform="translate(0.000000,500.000000) scale(0.100000,-0.100000)"
fill="#000000" stroke="none">
<path d="M2135 4935 c-425 -66 -785 -218 -1125 -474 -126 -95 -346 -307 -432
-416 -227 -289 -386 -613 -472 -960 -87 -348 -89 -795 -7 -1146 79 -339 236
-666 453 -946 356 -461 855 -777 1423 -902 326 -72 761 -69 1085 8 993 235
1737 1049 1880 2058 40 283 22 658 -45 926 -154 615 -513 1120 -1055 1484
-207 139 -513 269 -789 334 -273 64 -634 78 -916 34z m750 -63 c774 -126 1445
-627 1780 -1329 160 -335 235 -666 235 -1041 0 -614 -213 -1167 -624 -1621
-366 -406 -846 -662 -1416 -757 -207 -34 -511 -34 -720 0 -567 93 -1048 350
-1418 759 -329 362 -529 791 -602 1285 -18 122 -21 178 -18 370 3 152 10 262
22 332 144 870 720 1576 1535 1881 143 54 342 105 481 123 63 9 126 18 140 20
14 2 129 3 255 1 167 -2 263 -9 350 -23z"/>
<path d="M2270 4586 c0 -96 3 -181 6 -190 4 -10 18 -16 35 -16 l28 0 3 100 3
100 50 -64 c28 -36 55 -65 60 -65 6 0 33 30 60 67 l50 67 5 -100 c5 -96 6
-100 29 -103 13 -2 28 1 33 6 14 14 -1 372 -16 372 -6 -1 -42 -46 -81 -100
-38 -55 -75 -100 -81 -100 -6 0 -46 45 -89 100 -43 55 -82 100 -86 100 -5 0
-9 -78 -9 -174z"/>
<path d="M2781 4566 c-61 -90 -111 -169 -111 -174 0 -5 12 -13 27 -17 23 -5
32 -2 49 21 l22 27 76 -13 c70 -12 75 -14 81 -41 7 -32 9 -34 48 -43 22 -5 27
-3 27 11 0 29 -89 376 -98 385 -5 5 -58 -63 -121 -156z m103 9 c3 -8 8 -38 12
-66 l7 -52 -43 7 c-24 4 -47 9 -51 12 -8 5 51 113 62 114 4 0 9 -7 13 -15z"/>
<path d="M1798 4648 c-38 -12 -68 -25 -68 -31 0 -7 70 -254 95 -334 5 -15 34
-17 54 -4 11 7 11 17 1 61 -13 55 -9 65 30 75 20 5 33 -2 70 -40 43 -44 70
-54 100 -35 12 8 9 16 -21 47 -61 66 -63 69 -45 95 33 47 7 148 -45 175 -34
18 -94 15 -171 -9z m140 -54 c18 -12 22 -24 20 -52 -3 -31 -9 -40 -38 -54 -64
-30 -71 -28 -91 27 -24 69 -23 73 14 84 48 14 70 13 95 -5z"/>
<path d="M3145 4648 c-85 -234 -115 -319 -115 -327 0 -11 32 -31 48 -31 5 0
17 21 27 48 24 63 28 66 63 48 30 -15 42 -46 42 -106 0 -30 12 -44 49 -55 l24
-7 -6 70 -6 71 34 20 c39 23 67 70 68 117 2 65 -33 98 -153 143 -64 25 -69 25
-75 9z m86 -79 c42 -14 79 -47 79 -69 0 -10 -10 -30 -22 -45 -22 -29 -48 -30
-110 -6 l-27 10 21 61 c12 33 23 60 24 60 0 0 16 -5 35 -11z"/>
<path d="M1483 4331 c3 -110 8 -205 12 -210 4 -7 16 -6 36 4 24 13 29 21 27
47 -3 29 2 33 61 64 75 40 82 41 106 14 16 -18 20 -18 47 -4 16 8 28 19 26 23
-4 11 -305 261 -314 261 -4 0 -5 -90 -1 -199z m157 -15 c0 -11 -80 -49 -88
-42 -2 3 -7 35 -10 72 l-5 68 51 -44 c29 -24 52 -48 52 -54z"/>
<path d="M3487 4482 c-13 -20 -54 -93 -92 -161 -65 -117 -68 -124 -50 -137 32
-23 43 -16 80 51 20 36 38 65 40 65 2 0 11 -44 20 -97 14 -82 21 -102 44 -120
29 -25 51 -30 51 -10 0 6 -9 59 -20 116 -11 57 -18 106 -16 108 3 3 48 19 102
37 54 18 99 37 101 42 2 5 -10 17 -25 26 -27 16 -32 16 -121 -14 -50 -17 -94
-28 -97 -26 -2 3 9 29 26 59 36 66 37 73 5 87 -23 11 -27 9 -48 -26z"/>
<path d="M1177 4339 c-55 -38 -85 -65 -80 -72 12 -21 116 -170 161 -232 25
-33 49 -59 54 -57 5 1 45 28 89 58 80 56 92 76 58 97 -12 8 -29 0 -74 -33 -55
-41 -59 -42 -72 -25 -21 30 -16 42 32 75 47 33 55 50 30 70 -12 10 -24 5 -66
-25 l-51 -38 -23 29 c-13 16 -31 41 -39 56 l-16 27 55 36 c68 46 72 52 48 76
-18 19 -20 18 -106 -42z"/>
<path d="M3721 4180 c-61 -77 -111 -144 -111 -148 0 -9 109 -99 148 -123 21
-13 25 -12 38 6 14 19 12 23 -43 72 l-58 52 22 22 21 22 43 -37 c47 -40 60
-43 80 -20 11 14 9 20 -17 43 -16 15 -40 34 -53 43 l-24 17 38 48 c21 26 40
50 42 52 1 2 28 -15 59 -39 44 -33 61 -41 73 -33 29 18 17 39 -60 101 -43 34
-79 62 -82 62 -3 0 -55 -63 -116 -140z"/>
<path d="M977 4182 c-10 -10 -17 -23 -17 -28 0 -4 33 -42 73 -82 l72 -74 -157
6 c-111 5 -158 4 -163 -4 -8 -13 241 -270 262 -270 7 0 17 9 24 21 11 21 4 32
-56 94 -5 6 -26 28 -45 49 l-35 38 156 -7 c91 -4 159 -3 162 2 6 9 -238 273
-252 273 -4 0 -15 -8 -24 -18z"/>
<path d="M4035 4120 c-18 -20 -18 -21 8 -48 15 -16 27 -32 27 -38 0 -5 -47
-53 -105 -107 -58 -54 -105 -104 -105 -111 0 -7 9 -21 20 -31 19 -17 22 -15
130 89 62 58 115 106 119 106 4 0 18 -11 31 -25 27 -29 42 -31 60 -10 11 13 0
28 -66 98 -43 45 -83 85 -90 89 -6 4 -19 -1 -29 -12z"/>
<path d="M1046 3388 c-11 -15 -12 -26 -5 -39 10 -20 15 -22 214 -70 77 -18
143 -38 147 -44 5 -5 12 -23 17 -40 5 -16 18 -52 29 -80 73 -187 115 -293 122
-315 5 -14 59 -155 120 -315 138 -360 167 -438 188 -498 l16 -47 -86 -83
c-142 -136 -214 -273 -189 -358 10 -35 41 -68 87 -95 18 -10 18 -12 -1 -40
-15 -22 -20 -46 -20 -106 0 -70 2 -79 31 -115 53 -66 87 -83 166 -83 75 0 108
12 150 57 55 58 73 148 43 220 -8 19 -15 39 -15 44 0 5 192 9 435 9 239 0 435
-2 435 -4 0 -2 -7 -20 -15 -39 -30 -72 -13 -171 38 -225 77 -83 227 -83 304 0
50 54 69 162 38 222 -22 42 -20 46 35 46 45 0 50 2 56 25 14 57 53 54 -831 57
-783 3 -814 4 -834 22 -56 51 13 186 167 324 l79 72 649 65 c357 35 677 67
711 70 33 4 68 12 77 18 12 9 30 110 76 437 34 234 65 460 70 504 15 130 142
116 -1006 118 l-996 3 -37 93 c-20 51 -43 99 -51 106 -12 12 -359 106 -390
106 -5 0 -16 -10 -24 -22z m748 -384 c9 -24 7 -247 -3 -262 -5 -9 -24 -12 -57
-10 l-48 3 -39 100 c-57 150 -65 174 -59 180 3 3 49 5 103 5 79 0 98 -3 103
-16z m334 -131 l3 -143 -126 0 -125 0 0 138 c0 76 3 142 7 146 4 3 59 5 122 4
l116 -3 3 -142z m340 0 l3 -143 -126 0 -125 0 0 145 0 146 123 -3 122 -3 3
-142z m332 2 l0 -146 -122 3 -123 3 -3 129 c-1 72 0 136 2 143 4 10 36 13 126
13 l120 0 0 -145z m338 -2 l3 -143 -126 0 -125 0 0 145 0 146 123 -3 122 -3 3
-142z m326 138 c3 -4 -3 -68 -14 -140 -11 -73 -20 -135 -20 -137 0 -2 -45 -4
-99 -4 -86 0 -100 2 -104 18 -4 14 -2 237 2 265 1 10 229 9 235 -2z m-1667
-446 c4 -104 -5 -110 -38 -25 -37 96 -37 102 4 98 l32 -3 2 -70z m333 -65 l0
-140 -125 0 -125 0 0 140 0 140 125 0 125 0 0 -140z m340 0 l0 -140 -125 0
-125 0 0 140 0 140 125 0 125 0 0 -140z m330 0 l0 -141 -122 3 -123 3 -3 124
c-1 69 0 131 2 138 4 10 36 13 126 13 l120 0 0 -140z m340 0 l0 -140 -125 0
-125 0 0 140 0 140 125 0 125 0 0 -140z m271 135 c3 -2 -3 -58 -13 -122 -9
-65 -17 -126 -18 -136 0 -16 -9 -18 -77 -15 l-78 3 0 130 c0 72 1 133 3 138 3
8 176 10 183 2z m-1281 -504 l0 -138 -61 -7 c-34 -3 -70 -6 -79 -6 -13 0 -29
31 -64 123 -67 178 -72 167 79 167 l125 0 0 -139z m340 19 c0 -137 11 -124
-115 -135 -38 -3 -85 -8 -102 -11 l-33 -6 0 136 0 136 125 0 125 0 0 -120z
m330 16 l0 -104 -42 -6 c-24 -3 -80 -8 -125 -12 l-83 -7 0 110 c0 60 3 113 7
116 3 4 60 7 125 7 l118 0 0 -104z m340 15 l0 -89 -57 -6 c-32 -3 -88 -8 -125
-11 l-68 -7 0 101 0 101 125 0 125 0 0 -89z m215 22 c-4 -36 -9 -72 -12 -79
-6 -15 -102 -23 -112 -9 -6 8 -7 98 -2 143 1 8 22 12 67 12 l66 0 -7 -67z
m-206 -829 c22 -9 48 -28 57 -42 22 -34 22 -103 0 -137 -19 -29 -71 -55 -108
-55 -64 0 -126 80 -114 145 7 34 47 78 86 94 34 13 34 13 79 -5z m-1201 -14
c98 -60 64 -204 -52 -217 -33 -4 -53 -1 -71 11 -32 21 -65 74 -65 104 0 59 64
122 125 122 17 0 45 -9 63 -20z"/>
<path d="M4360 2693 c-1 -41 -33 -105 -68 -135 -17 -14 -54 -32 -82 -39 -27
-7 -50 -15 -50 -18 0 -3 26 -14 59 -23 84 -25 141 -98 141 -181 0 -28 18 -10
25 26 20 89 66 137 156 161 54 14 54 14 26 25 -16 6 -33 11 -38 11 -21 0 -88
41 -104 62 -8 13 -23 47 -31 75 -18 60 -34 77 -34 36z"/>
<path d="M617 2703 c-4 -3 -7 -15 -7 -25 0 -10 -11 -41 -25 -67 -25 -51 -70
-81 -142 -96 -37 -8 -44 -25 -10 -25 12 0 46 -11 75 -25 45 -21 56 -32 77 -77
14 -29 25 -63 25 -76 0 -33 23 -22 31 14 16 79 70 135 149 155 27 7 50 16 50
19 0 3 -23 12 -50 19 -28 7 -65 25 -82 39 -33 28 -67 93 -68 130 0 22 -10 28
-23 15z"/>
<path d="M733 1544 c-12 -19 -18 -47 -18 -85 0 -95 -45 -108 -73 -21 -20 62
-61 54 -47 -9 10 -45 61 -99 94 -99 54 1 83 48 80 132 -3 79 37 89 65 16 9
-22 22 -38 29 -35 21 7 19 52 -5 87 -20 29 -31 36 -65 38 -36 3 -44 -1 -60
-24z"/>
<path d="M4120 1506 c0 -4 33 -53 73 -111 39 -57 77 -112 84 -122 10 -17 12
-17 29 -1 15 15 16 21 5 42 -12 22 -11 30 13 70 20 34 33 46 50 46 27 0 54 27
40 39 -5 4 -54 13 -109 20 -55 6 -119 14 -142 18 -24 3 -43 3 -43 -1z m176
-67 c8 -13 -15 -59 -30 -59 -6 0 -21 16 -34 35 l-22 35 39 0 c22 0 43 -5 47
-11z"/>
<path d="M819 1349 c-52 -39 -100 -74 -108 -79 -11 -6 -4 -21 34 -73 30 -41
53 -63 61 -60 21 8 17 31 -12 69 -22 28 -24 37 -14 49 18 21 22 19 49 -20 25
-38 29 -39 50 -26 12 8 10 16 -12 45 -15 19 -27 38 -27 43 0 4 16 19 36 33
l36 24 20 -24 c11 -14 26 -33 33 -43 12 -18 45 -14 45 5 0 9 -87 128 -94 128
-1 0 -45 -32 -97 -71z"/>
<path d="M4009 1339 c-36 -39 -46 -73 -29 -104 22 -40 61 -47 129 -23 93 34
122 4 56 -57 -24 -21 -33 -37 -29 -48 9 -25 20 -21 64 23 93 93 26 186 -97
135 -76 -32 -106 -6 -56 48 31 33 34 57 6 57 -8 0 -28 -14 -44 -31z"/>
<path d="M954 1202 c-107 -100 -114 -127 -53 -197 27 -30 37 -35 74 -35 40 0
49 5 122 74 73 70 77 75 61 92 -16 16 -20 14 -76 -34 -32 -28 -65 -58 -72 -67
-18 -22 -56 -19 -80 7 -11 12 -20 26 -20 31 0 5 34 45 76 88 65 66 75 81 64
94 -7 8 -15 15 -19 15 -3 -1 -38 -31 -77 -68z"/>
<path d="M3850 1152 c0 -10 99 -265 105 -271 13 -12 35 25 30 48 -8 38 60 105
97 96 16 -4 29 -1 38 10 17 21 11 25 -85 61 -38 14 -91 34 -117 45 -51 21 -68
23 -68 11z m117 -79 c21 -10 40 -19 42 -20 6 -4 -41 -53 -50 -53 -4 0 -12 12
-17 28 -5 15 -13 35 -17 45 -9 21 -5 21 42 0z"/>
<path d="M3722 1033 c-34 -7 -89 -64 -100 -106 -15 -53 1 -98 48 -141 32 -29
48 -36 81 -36 75 0 145 52 151 111 4 35 -33 32 -50 -4 -46 -95 -182 -67 -182
38 0 49 30 83 82 94 24 5 34 13 36 29 4 23 -9 26 -66 15z"/>
<path d="M1197 921 c-42 -60 -77 -114 -77 -119 0 -8 22 -22 35 -22 1 0 20 25
41 56 l39 57 3 -57 c2 -36 8 -59 17 -62 7 -3 36 2 65 10 l52 16 -18 -28 c-9
-15 -28 -42 -40 -61 -22 -32 -22 -35 -6 -47 21 -16 20 -17 111 111 39 55 67
101 62 103 -5 2 -47 -8 -93 -22 -46 -14 -87 -26 -91 -26 -4 0 -7 42 -7 94 0
52 -4 97 -8 100 -5 3 -43 -44 -85 -103z"/>
<path d="M1481 788 c-19 -35 -47 -87 -63 -116 -16 -30 -28 -55 -26 -57 2 -2
33 -19 69 -39 60 -33 68 -35 80 -20 15 18 11 22 -50 56 -33 18 -36 25 -22 46
6 11 15 9 42 -7 41 -25 55 -26 63 -6 5 14 -33 46 -68 58 -11 4 0 36 23 66 l18
23 46 -25 c41 -23 47 -24 58 -10 11 13 10 18 -6 30 -25 18 -111 63 -122 63 -5
0 -24 -28 -42 -62z"/>
<path d="M3448 844 c-3 -5 -8 -22 -11 -39 -23 -122 -30 -145 -40 -145 -7 0
-44 16 -84 36 -40 20 -77 34 -82 32 -7 -2 96 -228 111 -243 2 -3 13 1 23 9 17
12 17 15 -9 70 -15 32 -25 60 -23 63 3 2 28 -7 56 -21 l50 -26 10 38 c6 20 11
48 11 61 0 34 21 14 50 -49 24 -50 39 -60 58 -37 7 8 -8 47 -52 136 -35 68
-65 120 -68 115z"/>
<path d="M1635 639 c-40 -100 -46 -122 -34 -130 23 -14 28 -11 46 26 29 60 73
41 73 -32 0 -32 5 -45 19 -53 30 -15 31 -14 31 43 0 47 3 54 29 68 39 22 57
78 39 116 -13 28 -105 82 -139 83 -12 0 -30 -35 -64 -121z m142 37 c24 -21 26
-26 15 -50 -9 -20 -19 -26 -44 -26 -54 0 -64 12 -49 59 14 48 36 53 78 17z"/>
<path d="M3121 696 c-36 -12 -66 -27 -68 -32 -3 -9 73 -243 81 -251 1 -2 34 8
72 20 54 19 70 28 72 45 4 26 -2 27 -58 7 -56 -20 -60 -19 -60 10 0 15 6 25
15 25 25 0 65 23 65 37 0 22 -23 25 -63 8 -37 -15 -37 -15 -48 12 -21 55 -17
66 31 84 25 9 45 22 44 28 -3 37 2 37 -83 7z"/>
<path d="M1922 640 c-51 -32 -74 -76 -69 -138 4 -59 30 -95 84 -118 65 -28
154 -7 125 29 -9 10 -25 13 -57 10 -39 -5 -47 -2 -75 25 -41 42 -42 92 -1 133
37 37 82 38 127 4 32 -25 64 -25 64 0 0 29 -85 75 -137 75 -15 0 -43 -9 -61
-20z"/>
<path d="M2756 610 c-40 -13 -84 -58 -95 -96 -18 -66 17 -146 74 -170 125 -52
249 61 200 182 -28 70 -106 107 -179 84z m103 -67 c67 -62 30 -163 -59 -163
-56 0 -90 36 -90 96 0 35 5 47 31 68 40 34 80 34 118 -1z"/>
<path d="M2236 578 c-62 -97 -126 -211 -126 -223 0 -22 37 -18 53 6 13 18 21
20 70 14 45 -6 57 -11 66 -31 6 -14 19 -24 31 -24 24 0 24 4 6 61 -8 24 -27
83 -41 132 -14 48 -30 87 -35 87 -5 0 -16 -10 -24 -22z m31 -118 c6 -22 7 -43
3 -45 -8 -5 -70 5 -70 11 0 9 43 74 49 74 4 0 12 -18 18 -40z"/>
<path d="M2402 454 l3 -139 37 -3 c54 -5 117 16 150 48 25 25 28 36 28 89 0
55 -3 65 -33 98 -32 34 -37 36 -111 41 l-77 5 3 -139z m146 63 c16 -15 22 -32
22 -63 0 -56 -24 -84 -78 -91 l-42 -6 0 90 c0 49 3 92 6 96 11 11 69 -5 92
-26z"/>
</g>
</svg>
